<?xml version="1.0" encoding="us-ascii" standalone="no"?><svg xmlns="http://www.w3.org/2000/svg" xmlns:xlink="http://www.w3.org/1999/xlink" contentStyleType="text/css" height="1087px" preserveAspectRatio="none" style="width:1800px;height:1087px;background:#FFFFFF;" version="1.1" viewBox="0 0 1800 1087" width="1800px" zoomAndPan="magnify"><defs/><g><!--cluster 6ebb7423072c5943f52c11274fd71b0b--><g id="cluster_6ebb7423072c5943f52c11274fd71b0b"><polygon fill="none" points="16,207.49,26,197.49,424,197.49,424,354.97,414,364.97,16,364.97,16,207.49" style="stroke:#181818;stroke-width:1.0;"/><line style="stroke:#181818;stroke-width:1.0;" x1="414" x2="424" y1="207.49" y2="197.49"/><line style="stroke:#181818;stroke-width:1.0;" x1="16" x2="414" y1="207.49" y2="207.49"/><line style="stroke:#181818;stroke-width:1.0;" x1="414" x2="414" y1="207.49" y2="364.97"/><text fill="#000000" font-family="sans-serif" font-size="14" font-weight="bold" lengthAdjust="spacing" textLength="83" x="174.5" y="223.4851">Dynamodb</text></g><!--cluster ba39a5f0aa547715c4df694144393752--><g id="cluster_ba39a5f0aa547715c4df694144393752"><polygon fill="none" points="81,16,91,6,1783,6,1783,163.49,1773,173.49,81,173.49,81,16" style="stroke:#181818;stroke-width:1.0;"/><line style="stroke:#181818;stroke-width:1.0;" x1="1773" x2="1783" y1="16" y2="6"/><line style="stroke:#181818;stroke-width:1.0;" x1="81" x2="1773" y1="16" y2="16"/><line style="stroke:#181818;stroke-width:1.0;" x1="1773" x2="1773" y1="16" y2="173.49"/><text fill="#000000" font-family="sans-serif" font-size="14" font-weight="bold" lengthAdjust="spacing" textLength="92" x="882" y="31.9951">Apigateway</text></g><!--cluster ef4ba2f338cdf4b615ed280ff0b2777d--><g id="cluster_ef4ba2f338cdf4b615ed280ff0b2777d"><polygon fill="none" points="58,398.97,68,388.97,410,388.97,410,546.46,400,556.46,58,556.46,58,398.97" style="stroke:#181818;stroke-width:1.0;"/><line style="stroke:#181818;stroke-width:1.0;" x1="400" x2="410" y1="398.97" y2="388.97"/><line style="stroke:#181818;stroke-width:1.0;" x1="58" x2="400" y1="398.97" y2="398.97"/><line style="stroke:#181818;stroke-width:1.0;" x1="400" x2="400" y1="398.97" y2="556.46"/><text fill="#000000" font-family="sans-serif" font-size="14" font-weight="bold" lengthAdjust="spacing" textLength="29" x="215.5" y="414.9651">Sqs</text></g><!--cluster 04a7da3c5b04cad85da1eebb92315b8b--><g id="cluster_04a7da3c5b04cad85da1eebb92315b8b"><polygon fill="none" points="448,207.49,458,197.49,1090,197.49,1090,1060.91,1080,1070.91,448,1070.91,448,207.49" style="stroke:#181818;stroke-width:1.0;"/><line style="stroke:#181818;stroke-width:1.0;" x1="1080" x2="1090" y1="207.49" y2="197.49"/><line style="stroke:#181818;stroke-width:1.0;" x1="448" x2="1080" y1="207.49" y2="207.49"/><line style="stroke:#181818;stroke-width:1.0;" x1="1080" x2="1080" y1="207.49" y2="1070.91"/><text fill="#000000" font-family="sans-serif" font-size="14" font-weight="bold" lengthAdjust="spacing" textLength="61" x="734.5" y="223.4851">Lambda</text></g><!--entity 426ffef052281311ebcdb09ae21d645b--><g id="elem_426ffef052281311ebcdb09ae21d645b"><rect fill="#F1F1F1" height="111.4844" rx="2.5" ry="2.5" style="stroke:#181818;stroke-width:0.5;" width="376" x="32" y="237.49"/><rect fill="#F1F1F1" height="10" style="stroke:#181818;stroke-width:0.5;" width="15" x="388" y="242.49"/><rect fill="#F1F1F1" height="2" style="stroke:#181818;stroke-width:0.5;" width="4" x="386" y="244.49"/><rect fill="#F1F1F1" height="2" style="stroke:#181818;stroke-width:0.5;" width="4" x="386" y="248.49"/><text fill="#000000" font-family="sans-serif" font-size="14" font-weight="bold" lengthAdjust="spacing" textLength="336" x="47" y="270.4851">dynamodb_${var.environment}_messages</text><text fill="#000000" font-family="sans-serif" font-size="14" lengthAdjust="spacing" textLength="4" x="47" y="286.782">&#160;</text><text fill="#000000" font-family="sans-serif" font-size="14" lengthAdjust="spacing" textLength="187" x="47" y="303.0789">terraform name: messages</text><text fill="#000000" font-family="sans-serif" font-size="14" lengthAdjust="spacing" textLength="254" x="47" y="319.3757">terraform type: aws_dynamodb_table</text><text fill="#000000" font-family="sans-serif" font-size="14" lengthAdjust="spacing" textLength="4" x="47" y="335.6726">&#160;</text></g><!--entity 85c5896e397381812cc3346264cc26af--><g id="elem_85c5896e397381812cc3346264cc26af"><rect fill="#F1F1F1" height="111.4844" rx="2.5" ry="2.5" style="stroke:#181818;stroke-width:0.5;" width="566" x="1201" y="46"/><rect fill="#F1F1F1" height="10" style="stroke:#181818;stroke-width:0.5;" width="15" x="1747" y="51"/><rect fill="#F1F1F1" height="2" style="stroke:#181818;stroke-width:0.5;" width="4" x="1745" y="53"/><rect fill="#F1F1F1" height="2" style="stroke:#181818;stroke-width:0.5;" width="4" x="1745" y="57"/><text fill="#000000" font-family="sans-serif" font-size="14" font-weight="bold" lengthAdjust="spacing" textLength="526" x="1216" y="78.9951">apigateway_${var.environment}_RetailOrderDiscount_api_gateway</text><text fill="#000000" font-family="sans-serif" font-size="14" lengthAdjust="spacing" textLength="4" x="1216" y="95.292">&#160;</text><text fill="#000000" font-family="sans-serif" font-size="14" lengthAdjust="spacing" textLength="245" x="1216" y="111.5889">terraform name: retailorderdiscount</text><text fill="#000000" font-family="sans-serif" font-size="14" lengthAdjust="spacing" textLength="285" x="1216" y="127.8857">terraform type: aws_api_gateway_rest_api</text><text fill="#000000" font-family="sans-serif" font-size="14" lengthAdjust="spacing" textLength="4" x="1216" y="144.1826">&#160;</text></g><!--entity b89f465a8fef219151664b77f5375662--><g id="elem_b89f465a8fef219151664b77f5375662"><rect fill="#F1F1F1" height="111.4844" rx="2.5" ry="2.5" style="stroke:#181818;stroke-width:0.5;" width="537" x="96.5" y="46"/><rect fill="#F1F1F1" height="10" style="stroke:#181818;stroke-width:0.5;" width="15" x="613.5" y="51"/><rect fill="#F1F1F1" height="2" style="stroke:#181818;stroke-width:0.5;" width="4" x="611.5" y="53"/><rect fill="#F1F1F1" height="2" style="stroke:#181818;stroke-width:0.5;" width="4" x="611.5" y="57"/><text fill="#000000" font-family="sans-serif" font-size="14" font-weight="bold" lengthAdjust="spacing" textLength="497" x="111.5" y="78.9951">apigateway_${var.environment}_RetailOrderPrice_api_gateway</text><text fill="#000000" font-family="sans-serif" font-size="14" lengthAdjust="spacing" textLength="4" x="111.5" y="95.292">&#160;</text><text fill="#000000" font-family="sans-serif" font-size="14" lengthAdjust="spacing" textLength="219" x="111.5" y="111.5889">terraform name: retailorderprice</text><text fill="#000000" font-family="sans-serif" font-size="14" lengthAdjust="spacing" textLength="285" x="111.5" y="127.8857">terraform type: aws_api_gateway_rest_api</text><text fill="#000000" font-family="sans-serif" font-size="14" lengthAdjust="spacing" textLength="4" x="111.5" y="144.1826">&#160;</text></g><!--entity b9b40c717303b728565b9a3b92c7e32b--><g id="elem_b9b40c717303b728565b9a3b92c7e32b"><rect fill="#F1F1F1" height="111.4844" rx="2.5" ry="2.5" style="stroke:#181818;stroke-width:0.5;" width="497" x="668.5" y="46"/><rect fill="#F1F1F1" height="10" style="stroke:#181818;stroke-width:0.5;" width="15" x="1145.5" y="51"/><rect fill="#F1F1F1" height="2" style="stroke:#181818;stroke-width:0.5;" width="4" x="1143.5" y="53"/><rect fill="#F1F1F1" height="2" style="stroke:#181818;stroke-width:0.5;" width="4" x="1143.5" y="57"/><text fill="#000000" font-family="sans-serif" font-size="14" font-weight="bold" lengthAdjust="spacing" textLength="457" x="683.5" y="78.9951">apigateway_${var.environment}_RetailOrder_api_gateway</text><text fill="#000000" font-family="sans-serif" font-size="14" lengthAdjust="spacing" textLength="4" x="683.5" y="95.292">&#160;</text><text fill="#000000" font-family="sans-serif" font-size="14" lengthAdjust="spacing" textLength="185" x="683.5" y="111.5889">terraform name: retailorder</text><text fill="#000000" font-family="sans-serif" font-size="14" lengthAdjust="spacing" textLength="285" x="683.5" y="127.8857">terraform type: aws_api_gateway_rest_api</text><text fill="#000000" font-family="sans-serif" font-size="14" lengthAdjust="spacing" textLength="4" x="683.5" y="144.1826">&#160;</text></g><!--entity adb0f7f5e2091c652bd8a07132aac9a0--><g id="elem_adb0f7f5e2091c652bd8a07132aac9a0"><rect fill="#F1F1F1" height="111.4844" rx="2.5" ry="2.5" style="stroke:#181818;stroke-width:0.5;" width="321" x="73.5" y="428.97"/><rect fill="#F1F1F1" height="10" style="stroke:#181818;stroke-width:0.5;" width="15" x="374.5" y="433.97"/><rect fill="#F1F1F1" height="2" style="stroke:#181818;stroke-width:0.5;" width="4" x="372.5" y="435.97"/><rect fill="#F1F1F1" height="2" style="stroke:#181818;stroke-width:0.5;" width="4" x="372.5" y="439.97"/><text fill="#000000" font-family="sans-serif" font-size="14" font-weight="bold" lengthAdjust="spacing" textLength="281" x="88.5" y="461.9651">sqs_${var.environment}-messages</text><text fill="#000000" font-family="sans-serif" font-size="14" lengthAdjust="spacing" textLength="4" x="88.5" y="478.262">&#160;</text><text fill="#000000" font-family="sans-serif" font-size="14" lengthAdjust="spacing" textLength="239" x="88.5" y="494.5589">terraform name: messages_queue</text><text fill="#000000" font-family="sans-serif" font-size="14" lengthAdjust="spacing" textLength="217" x="88.5" y="510.8557">terraform type: aws_sqs_queue</text><text fill="#000000" font-family="sans-serif" font-size="14" lengthAdjust="spacing" textLength="4" x="88.5" y="527.1526">&#160;</text></g><!--entity bee6b54311bae6b86f422720e0417fd7--><g id="elem_bee6b54311bae6b86f422720e0417fd7"><rect fill="#F1F1F1" height="111.4844" rx="2.5" ry="2.5" style="stroke:#181818;stroke-width:0.5;" width="399" x="464.5" y="237.49"/><rect fill="#F1F1F1" height="10" style="stroke:#181818;stroke-width:0.5;" width="15" x="843.5" y="242.49"/><rect fill="#F1F1F1" height="2" style="stroke:#181818;stroke-width:0.5;" width="4" x="841.5" y="244.49"/><rect fill="#F1F1F1" height="2" style="stroke:#181818;stroke-width:0.5;" width="4" x="841.5" y="248.49"/><text fill="#000000" font-family="sans-serif" font-size="14" font-weight="bold" lengthAdjust="spacing" textLength="359" x="479.5" y="270.4851">lambda_${var.environment}_RetailOrderPrice</text><text fill="#000000" font-family="sans-serif" font-size="14" lengthAdjust="spacing" textLength="4" x="479.5" y="286.782">&#160;</text><text fill="#000000" font-family="sans-serif" font-size="14" lengthAdjust="spacing" textLength="219" x="479.5" y="303.0789">terraform name: retailorderprice</text><text fill="#000000" font-family="sans-serif" font-size="14" lengthAdjust="spacing" textLength="253" x="479.5" y="319.3757">terraform type: aws_lambda_function</text><text fill="#000000" font-family="sans-serif" font-size="14" lengthAdjust="spacing" textLength="4" x="479.5" y="335.6726">&#160;</text></g><!--entity bd616ef6c1cd233a92969f8012d01a44--><g id="elem_bd616ef6c1cd233a92969f8012d01a44"><rect fill="#F1F1F1" height="111.4844" rx="2.5" ry="2.5" style="stroke:#181818;stroke-width:0.5;" width="359" x="715.5" y="428.97"/><rect fill="#F1F1F1" height="10" style="stroke:#181818;stroke-width:0.5;" width="15" x="1054.5" y="433.97"/><rect fill="#F1F1F1" height="2" style="stroke:#181818;stroke-width:0.5;" width="4" x="1052.5" y="435.97"/><rect fill="#F1F1F1" height="2" style="stroke:#181818;stroke-width:0.5;" width="4" x="1052.5" y="439.97"/><text fill="#000000" font-family="sans-serif" font-size="14" font-weight="bold" lengthAdjust="spacing" textLength="319" x="730.5" y="461.9651">lambda_${var.environment}_RetailOrder</text><text fill="#000000" font-family="sans-serif" font-size="14" lengthAdjust="spacing" textLength="4" x="730.5" y="478.262">&#160;</text><text fill="#000000" font-family="sans-serif" font-size="14" lengthAdjust="spacing" textLength="185" x="730.5" y="494.5589">terraform name: retailorder</text><text fill="#000000" font-family="sans-serif" font-size="14" lengthAdjust="spacing" textLength="253" x="730.5" y="510.8557">terraform type: aws_lambda_function</text><text fill="#000000" font-family="sans-serif" font-size="14" lengthAdjust="spacing" textLength="4" x="730.5" y="527.1526">&#160;</text></g><!--entity 834a90bc929919c0a0b398f7502bb6ad--><g id="elem_834a90bc929919c0a0b398f7502bb6ad"><rect fill="#F1F1F1" height="111.4844" rx="2.5" ry="2.5" style="stroke:#181818;stroke-width:0.5;" width="461" x="464.5" y="600.46"/><rect fill="#F1F1F1" height="10" style="stroke:#181818;stroke-width:0.5;" width="15" x="905.5" y="605.46"/><rect fill="#F1F1F1" height="2" style="stroke:#181818;stroke-width:0.5;" width="4" x="903.5" y="607.46"/><rect fill="#F1F1F1" height="2" style="stroke:#181818;stroke-width:0.5;" width="4" x="903.5" y="611.46"/><text fill="#000000" font-family="sans-serif" font-size="14" font-weight="bold" lengthAdjust="spacing" textLength="421" x="479.5" y="633.4551">lambda_${var.environment}_Lambda_SQS_DynamoDB</text><text fill="#000000" font-family="sans-serif" font-size="14" lengthAdjust="spacing" textLength="4" x="479.5" y="649.752">&#160;</text><text fill="#000000" font-family="sans-serif" font-size="14" lengthAdjust="spacing" textLength="277" x="479.5" y="666.0489">terraform name: lamdba_sqs_dynamodb</text><text fill="#000000" font-family="sans-serif" font-size="14" lengthAdjust="spacing" textLength="253" x="479.5" y="682.3457">terraform type: aws_lambda_function</text><text fill="#000000" font-family="sans-serif" font-size="14" lengthAdjust="spacing" textLength="4" x="479.5" y="698.6426">&#160;</text></g><!--entity 3a0c1a2f30ab1c21e7ddd837e6d1c426--><g id="elem_3a0c1a2f30ab1c21e7ddd837e6d1c426"><rect fill="#F1F1F1" height="111.4844" rx="2.5" ry="2.5" style="stroke:#181818;stroke-width:0.5;" width="392" x="571" y="771.94"/><rect fill="#F1F1F1" height="10" style="stroke:#181818;stroke-width:0.5;" width="15" x="943" y="776.94"/><rect fill="#F1F1F1" height="2" style="stroke:#181818;stroke-width:0.5;" width="4" x="941" y="778.94"/><rect fill="#F1F1F1" height="2" style="stroke:#181818;stroke-width:0.5;" width="4" x="941" y="782.94"/><text fill="#000000" font-family="sans-serif" font-size="14" font-weight="bold" lengthAdjust="spacing" textLength="352" x="586" y="804.9351">lambda_${var.environment}_RetailOrderLine</text><text fill="#000000" font-family="sans-serif" font-size="14" lengthAdjust="spacing" textLength="4" x="586" y="821.232">&#160;</text><text fill="#000000" font-family="sans-serif" font-size="14" lengthAdjust="spacing" textLength="209" x="586" y="837.5289">terraform name: retailorderline</text><text fill="#000000" font-family="sans-serif" font-size="14" lengthAdjust="spacing" textLength="253" x="586" y="853.8257">terraform type: aws_lambda_function</text><text fill="#000000" font-family="sans-serif" font-size="14" lengthAdjust="spacing" textLength="4" x="586" y="870.1226">&#160;</text></g><!--entity aa992809d00b3d2d9557026fb1280791--><g id="elem_aa992809d00b3d2d9557026fb1280791"><rect fill="#F1F1F1" height="111.4844" rx="2.5" ry="2.5" style="stroke:#181818;stroke-width:0.5;" width="428" x="646" y="943.43"/><rect fill="#F1F1F1" height="10" style="stroke:#181818;stroke-width:0.5;" width="15" x="1054" y="948.43"/><rect fill="#F1F1F1" height="2" style="stroke:#181818;stroke-width:0.5;" width="4" x="1052" y="950.43"/><rect fill="#F1F1F1" height="2" style="stroke:#181818;stroke-width:0.5;" width="4" x="1052" y="954.43"/><text fill="#000000" font-family="sans-serif" font-size="14" font-weight="bold" lengthAdjust="spacing" textLength="388" x="661" y="976.4251">lambda_${var.environment}_RetailOrderDiscount</text><text fill="#000000" font-family="sans-serif" font-size="14" lengthAdjust="spacing" textLength="4" x="661" y="992.722">&#160;</text><text fill="#000000" font-family="sans-serif" font-size="14" lengthAdjust="spacing" textLength="245" x="661" y="1009.0189">terraform name: retailorderdiscount</text><text fill="#000000" font-family="sans-serif" font-size="14" lengthAdjust="spacing" textLength="253" x="661" y="1025.3157">terraform type: aws_lambda_function</text><text fill="#000000" font-family="sans-serif" font-size="14" lengthAdjust="spacing" textLength="4" x="661" y="1041.6126">&#160;</text></g><!--link 426ffef052281311ebcdb09ae21d645b to adb0f7f5e2091c652bd8a07132aac9a0--><g id="link_426ffef052281311ebcdb09ae21d645b_adb0f7f5e2091c652bd8a07132aac9a0"><path codeLine="80" d="M224.07,349.29 C225.91,374.2 228.08,403.59 229.92,428.52 " fill="none" id="426ffef052281311ebcdb09ae21d645b-adb0f7f5e2091c652bd8a07132aac9a0" style="stroke:#181818;stroke-width:1.0;"/></g><!--link 426ffef052281311ebcdb09ae21d645b to 834a90bc929919c0a0b398f7502bb6ad--><g id="link_426ffef052281311ebcdb09ae21d645b_834a90bc929919c0a0b398f7502bb6ad"><path codeLine="81" d="M355.96,349.43 C374.67,358.98 393.21,369.55 410,380.97 C459.61,414.71 574.29,530.17 642.09,600.06 " fill="none" id="426ffef052281311ebcdb09ae21d645b-834a90bc929919c0a0b398f7502bb6ad" style="stroke:#181818;stroke-width:1.0;"/></g><!--link 85c5896e397381812cc3346264cc26af to aa992809d00b3d2d9557026fb1280791--><g id="link_85c5896e397381812cc3346264cc26af_aa992809d00b3d2d9557026fb1280791"><path codeLine="82" d="M1439.06,157.97 C1386.04,228.88 1305,357.84 1305,483.71 C1305,483.71 1305,483.71 1305,657.2 C1305,800.15 1158.52,891.31 1033.64,943.04 " fill="none" id="85c5896e397381812cc3346264cc26af-aa992809d00b3d2d9557026fb1280791" style="stroke:#181818;stroke-width:1.0;"/></g><!--link b89f465a8fef219151664b77f5375662 to bee6b54311bae6b86f422720e0417fd7--><g id="link_b89f465a8fef219151664b77f5375662_bee6b54311bae6b86f422720e0417fd7"><path codeLine="83" d="M451.88,157.81 C491.2,182.72 537.56,212.1 576.9,237.03 " fill="none" id="b89f465a8fef219151664b77f5375662-bee6b54311bae6b86f422720e0417fd7" style="stroke:#181818;stroke-width:1.0;"/></g><!--link b9b40c717303b728565b9a3b92c7e32b to bd616ef6c1cd233a92969f8012d01a44--><g id="link_b9b40c717303b728565b9a3b92c7e32b_bd616ef6c1cd233a92969f8012d01a44"><path codeLine="84" d="M913.82,157.74 C909.65,230.06 902.35,356.42 898.17,428.74 " fill="none" id="b9b40c717303b728565b9a3b92c7e32b-bd616ef6c1cd233a92969f8012d01a44" style="stroke:#181818;stroke-width:1.0;"/></g><!--link adb0f7f5e2091c652bd8a07132aac9a0 to 834a90bc929919c0a0b398f7502bb6ad--><g id="link_adb0f7f5e2091c652bd8a07132aac9a0_834a90bc929919c0a0b398f7502bb6ad"><path codeLine="85" d="M383.95,540.9 C405.44,548.81 427.29,556.84 448,564.46 C479.3,575.97 512.84,588.29 544.78,600.03 " fill="none" id="adb0f7f5e2091c652bd8a07132aac9a0-834a90bc929919c0a0b398f7502bb6ad" style="stroke:#181818;stroke-width:1.0;"/></g><!--link bee6b54311bae6b86f422720e0417fd7 to bd616ef6c1cd233a92969f8012d01a44--><g id="link_bee6b54311bae6b86f422720e0417fd7_bd616ef6c1cd233a92969f8012d01a44"><path codeLine="86" d="M731.13,349.29 C761.5,374.2 797.32,403.59 827.71,428.52 " fill="none" id="bee6b54311bae6b86f422720e0417fd7-bd616ef6c1cd233a92969f8012d01a44" style="stroke:#181818;stroke-width:1.0;"/></g><!--link bee6b54311bae6b86f422720e0417fd7 to aa992809d00b3d2d9557026fb1280791--><g id="link_bee6b54311bae6b86f422720e0417fd7_aa992809d00b3d2d9557026fb1280791"><path codeLine="87" d="M669.2,349.22 C676.71,426.01 690.51,556.88 698,564.46 C781.3,648.62 879.57,515.44 962,600.46 C1005.86,645.7 1004.76,825.49 980,883.43 C970.37,905.96 953.91,926.17 936.21,943.13 " fill="none" id="bee6b54311bae6b86f422720e0417fd7-aa992809d00b3d2d9557026fb1280791" style="stroke:#181818;stroke-width:1.0;"/></g><!--link bee6b54311bae6b86f422720e0417fd7 to 3a0c1a2f30ab1c21e7ddd837e6d1c426--><g id="link_bee6b54311bae6b86f422720e0417fd7_3a0c1a2f30ab1c21e7ddd837e6d1c426"><path codeLine="88" d="M657.38,349.4 C650.33,419.19 643.58,533.97 671,564.46 C752.55,655.12 862.63,508.75 943,600.46 C975.66,637.72 966.6,668.38 943,711.94 C930.05,735.83 909.74,755.54 887.44,771.47 " fill="none" id="bee6b54311bae6b86f422720e0417fd7-3a0c1a2f30ab1c21e7ddd837e6d1c426" style="stroke:#181818;stroke-width:1.0;"/></g><!--link bee6b54311bae6b86f422720e0417fd7 to 834a90bc929919c0a0b398f7502bb6ad--><g id="link_bee6b54311bae6b86f422720e0417fd7_834a90bc929919c0a0b398f7502bb6ad"><path codeLine="89" d="M641.98,349.04 C638.67,359.48 635.77,370.44 634,380.97 C620.49,461.39 610.22,486.45 634,564.46 C637.76,576.8 643.83,588.99 650.72,600.24 " fill="none" id="bee6b54311bae6b86f422720e0417fd7-834a90bc929919c0a0b398f7502bb6ad" style="stroke:#181818;stroke-width:1.0;"/></g><!--link bd616ef6c1cd233a92969f8012d01a44 to 3a0c1a2f30ab1c21e7ddd837e6d1c426--><g id="link_bd616ef6c1cd233a92969f8012d01a44_3a0c1a2f30ab1c21e7ddd837e6d1c426"><path codeLine="90" d="M940.8,540.74 C953.06,558.67 964.66,579.41 971,600.46 C985.29,647.9 996.02,669.17 971,711.94 C956.74,736.32 935.19,755.92 911.36,771.53 " fill="none" id="bd616ef6c1cd233a92969f8012d01a44-3a0c1a2f30ab1c21e7ddd837e6d1c426" style="stroke:#181818;stroke-width:1.0;"/></g><!--link bd616ef6c1cd233a92969f8012d01a44 to aa992809d00b3d2d9557026fb1280791--><g id="link_bd616ef6c1cd233a92969f8012d01a44_aa992809d00b3d2d9557026fb1280791"><path codeLine="91" d="M949.38,540.88 C963.9,558.59 978.03,579.16 987,600.46 C1035.98,716.67 1063.49,770.18 1008,883.43 C996.55,906.78 977.81,926.75 957.44,943.16 " fill="none" id="bd616ef6c1cd233a92969f8012d01a44-aa992809d00b3d2d9557026fb1280791" style="stroke:#181818;stroke-width:1.0;"/></g><!--link bd616ef6c1cd233a92969f8012d01a44 to 834a90bc929919c0a0b398f7502bb6ad--><g id="link_bd616ef6c1cd233a92969f8012d01a44_834a90bc929919c0a0b398f7502bb6ad"><path codeLine="92" d="M830.07,540.74 C807.6,559.78 782.42,581.12 759.95,600.16 " fill="none" id="bd616ef6c1cd233a92969f8012d01a44-834a90bc929919c0a0b398f7502bb6ad" style="stroke:#181818;stroke-width:1.0;"/></g><!--link 834a90bc929919c0a0b398f7502bb6ad to aa992809d00b3d2d9557026fb1280791--><g id="link_834a90bc929919c0a0b398f7502bb6ad_aa992809d00b3d2d9557026fb1280791"><path codeLine="93" d="M602.8,712.38 C583.12,728.89 564.98,748.85 554,771.94 C532.72,816.69 525.78,842.7 554,883.43 C576.54,915.95 609.52,939.27 645.56,955.99 " fill="none" id="834a90bc929919c0a0b398f7502bb6ad-aa992809d00b3d2d9557026fb1280791" style="stroke:#181818;stroke-width:1.0;"/></g><!--link 834a90bc929919c0a0b398f7502bb6ad to 3a0c1a2f30ab1c21e7ddd837e6d1c426--><g id="link_834a90bc929919c0a0b398f7502bb6ad_3a0c1a2f30ab1c21e7ddd837e6d1c426"><path codeLine="94" d="M718.38,712.23 C726.47,731.27 735.53,752.6 743.62,771.64 " fill="none" id="834a90bc929919c0a0b398f7502bb6ad-3a0c1a2f30ab1c21e7ddd837e6d1c426" style="stroke:#181818;stroke-width:1.0;"/></g><!--link 3a0c1a2f30ab1c21e7ddd837e6d1c426 to aa992809d00b3d2d9557026fb1280791--><g id="link_3a0c1a2f30ab1c21e7ddd837e6d1c426_aa992809d00b3d2d9557026fb1280791"><path codeLine="95" d="M797.19,883.71 C807.64,902.75 819.35,924.08 829.8,943.13 " fill="none" id="3a0c1a2f30ab1c21e7ddd837e6d1c426-aa992809d00b3d2d9557026fb1280791" style="stroke:#181818;stroke-width:1.0;"/></g><!--SRC=[fLN9Jjn04BtxAooK4n9HT_MUMoAEI5auHf5LrGkoD6E3FK0Guj_JOmO2Q9Jk8RUMg-lvlLfUusertgxxt_rmqGnZYEtHwTs0wp7GKOjpgoEHaI2O0Q-S54c1vnoCJC5mOjJUDwqVrvVZ48TDAq6d51DJ09OBpYFvGCnX11wqLDJ-R8wFmmw_-t1_WzF7EDpqqpYiS_v3juxpZ1TnFZvkcasS9apZj6xp_VYfVOgz26pkBdC0R-Vk6NI3j8fDywjvsCdvVDbVu2RUujqYY50uL8aXAcaCLrw6f9taKWedZ8BNWgpooZeTXJF2Sil1Uo6a1Ysz1urf4OJFVzWdwKVSOB_wEeKudVQp7w-7JPSpkbtAFgNJaZ9kKy8kPQ_e5p3T5ES5TolzBt-oBacjqEQk07TSSQqb6PDKrger7CR_szJxU03vo-tzzp9t99att0Wco81LMf53GGwyYGBeCEO7a3w8xzEGdL_DotJ590aX2M5zo4VDLGnWMKgCm1WJNayNvkL8kHSHcEDUAw1WaHak0D4xP8l6-MhU8-waPbEwg-julRy1MzJ7w0iLPxYcW8iG9j4455uHanw3LG5vp5xWG715zitUKuoQbCmRJvXFLYS9O8159hd9Jh48MIteDIFsxh7Q_I9T3txJZyERYGgQwvYqvpw04EZ0QPSiun0OHodhIRvdWlv9pGg9Zf7Fb1ntdY4ZuMmoYW6Hnb2WzjYtxlpxUVTetgTVzb7C085mQVsJNHvELI3pV3lY38bxuD644AmmKGVki__NL_6i7qgTNkKhXrD4T2uldGiibp50S4ePbbyculchSRoUufDX_uz9xw7wq1GVofDmKhI7EfJIR3N5DsxXKgXfKtnfjYWbdsYAhh-W51QvAVfgLLsAfbR5fGgbNDqQbD9grg6KwrBoqJekDIZbkjIWb3UWPBzLNAfGYdKf-ciDbpy0]--></g></svg>